<?xml version="1.0" encoding="utf-8"?>
<!-- Generator: Adobe Illustrator 22.1.0, SVG Export Plug-In . SVG Version: 6.00 Build 0)  -->
<svg version="1.1" id="Слой_1" xmlns="http://www.w3.org/2000/svg" xmlns:xlink="http://www.w3.org/1999/xlink" x="0px" y="0px"
	 viewBox="0 0 1370 738" style="enable-background:new 0 0 1370 738;" xml:space="preserve">
<style type="text/css">
	.st0{fill:#3EA4BE;}
	.st1{fill:#59C9CE;}
	.st2{fill:#FDFEFE;}
</style>
<g>
	<path class="st0" d="M1367.1,86c-39.1-17.5-80.2-27.1-122.6-32.5c-48.8-6.1-97.8-8.1-146.7-3.7C1045.7,54.6,993.4,59.3,942,69
		c-63.8,12-127,27.9-189.9,44.3c-96.2,25.2-192.3,50.8-290.6,66.6c-64.4,10.4-129.1,17.2-194.4,14.9c-65.2-2.4-128.9-12.5-188-42.3
		C52,138.8,27.9,121.1,4.9,98.3c3.5,1.1,5.4,1.4,6.9,2.3c41.4,25.1,87.2,36.6,134.6,42.8c109.8,14.4,218,1.6,324.7-23.5
		c75.6-17.8,150.1-40.6,225.1-60.8c90.4-24.4,182-43,275.3-53.1c20.3-2.2,40.8-3,61.2-4.6c2.3-0.2,4.6-1,6.9-1.6
		c30.4,0,60.9,0,91.3,0c9.7,1.2,19.3,2.7,29,3.7c64.1,7.1,125.9,21.5,180.3,58.3c10,6.7,18.9,15,28.3,22.6
		C1368,85,1367.5,85.5,1367.1,86z"/>
	<path class="st1" d="M239.6,557.1c-14,3.2-22.6-4-31.1-14.2C135.8,455.3,80.7,357.7,40.9,251.4c-12.9-34.4-22.8-70-34-105.1
		c-0.9-2.9-1.3-5.9-2.2-10.4c12,10.3,22.4,19.9,33.6,28.5c41.9,31.9,89.9,50.2,141.2,58.7c33.2,5.5,67,8.4,100.7,9.7
		c86,3.2,170.8-8.3,254.3-27.4c91.1-20.9,181.4-45.7,272.1-68.2c79.1-19.6,159-34.9,240.1-44.5c58.1-6.9,116.3-9.3,174.6-6.7
		c35,1.6,69.8,6,103.1,17.9c2.6,0.9,5.2,1.9,7.8,3.1c0.8,0.4,1.3,1.3,3.1,3.4c-9.7,17.3-19,35.5-29.6,52.8
		c-60.4,98-146.6,165.4-251.9,209.5c-68.5,28.7-140,45.7-213.3,56.1c-61.5,8.8-123.4,13.1-185.5,10.7
		c-68.3-2.6-135.7-12.5-202.1-28.4c-95.4-22.9-186.7-56.7-273.9-101.7c-3-1.6-6.2-2.8-9.3-4.2c-1.6-0.5-3.1-0.9-4.7-1.4
		c-0.1,0.4-0.2,0.8-0.4,1.2c1.3,0.5,2.6,1,4,1.5c24.1,15.2,47.6,31.5,72.3,45.4c99.1,55.7,204.7,94,316.4,115.2
		c71.6,13.6,143.9,18.5,216.5,15.1c105.9-5,210.1-20.7,310.7-55.5c67.5-23.4,131.3-54.1,187.4-98.9c17.8-14.3,33.7-31,50.5-46.6
		c0.2,0.2,0.4,0.4,0.7,0.7c-10.7,22.3-20.8,45-32.2,67c-29.5,57.1-61.7,112.8-103.1,162.3c-13.8,16.6-30.4,30.8-45.7,46.1
		c-39.2,0-78.5,0-117.7,0c-36.9,0.1-73.9,0.2-110.8,0.2c-185.6,0-371.2-0.1-556.9-0.1C317.7,557.1,278.6,557.1,239.6,557.1z"/>
	<path class="st0" d="M1024.5,557c39.2,0,78.5,0,117.7,0c0,12.7,0.1,25.5,0.1,38.2c0,14.5-2.8,17.3-17.2,17.7c-1.5,0-3,0.2-4.5,0.3
		c2,43.7,26.8,73.7,67.5,71.1c10.4-0.7,21-1.8,31.1-4.5c13.1-3.5,21.2-13.1,23.3-26.4c1.6-9.7,2.5-19.8,1.6-29.5
		c-2.2-23.1-16.9-34.7-43.7-34.6c3.3,1.9,5.6,3.3,7.9,4.7c16.6,10.1,23.3,30.8,15.8,48.7c-7.7,18.3-27.4,27.9-46.6,22.6
		c-18.9-5.2-31-22.9-28.7-42.3c0.6-5.2,0.6-10.6,1.7-15.7c5.5-24.2,22.7-39.3,48-42.7c49.3-6.5,85.8,29.2,80.3,78.5
		c-0.6,5.5-0.5,11.2-1.5,16.7c-7.1,38.6-27.4,58.3-66.3,65.1c-44,7.7-84,0-117.7-31c-23.4-21.5-35.7-48.6-39.4-81.1
		c-4.2,0-8.1,0-12,0c-12.4-0.1-16.6-4.1-16.8-16.7C1024.6,583.1,1024.6,570,1024.5,557z"/>
	<path class="st0" d="M239.6,557.1c39.1,0,78.1,0,117.2,0c-0.1,12.7-0.3,25.4-0.3,38.2c-0.1,14.6-2.9,17.6-17.3,17.6
		c-3.4,0-6.7,0-8.1,0c-6.4,17.7-10.6,35.1-18.7,50.4c-23.1,44-72.5,68.6-122.1,63.8c-20-1.9-39.4-4.8-56.4-16.4
		c-18.2-12.5-26.1-31.1-29.2-52c-2.5-16.9-3.1-33.9,2.5-50.6c8.4-25.1,31.3-42.2,59-43.8c30.6-1.8,53.5,9.4,61.9,32.7
		c3.9,10.7,5.3,23,4.8,34.5c-0.9,19.3-16,33.3-34.7,35.2c-18.1,1.8-35.4-9.5-41.2-26.9c-5.9-17.8,1.4-36.7,17.8-46.5
		c1.8-1.1,3.7-2.1,5.8-3.2c-22.4-3.2-40.5,11-42.7,33.7c-0.7,7.4-0.7,14.9,0,22.3c2.1,22.1,15.5,34.7,39.2,37.5
		c1.8,0.2,3.7,0.2,5.6,0.4c52.9,5.9,72.6-24.7,78.5-63c0.3-2.1,0.7-4.2,1.1-6.1c-0.7-0.7-1-1.5-1.5-1.5c-20.8-2-20.8-2-20.9-23.6
		C239.9,578.8,239.7,568,239.6,557.1z"/>
	<path class="st0" d="M1368.4,84.5c0.5,0.9,1.1,1.7,1.6,2.6c-1-0.4-2-0.8-2.9-1.1C1367.5,85.5,1368,85,1368.4,84.5z"/>
	<path class="st1" d="M1322.5,281c0.4-0.5,0.7-0.9,1.1-1.4c-0.1,0.7-0.3,1.3-0.4,2C1322.9,281.4,1322.7,281.2,1322.5,281z"/>
	<path class="st2" d="M168.6,306.4c-1.3-0.5-2.6-1-4-1.5c0.1-0.4,0.2-0.8,0.4-1.2c1.6,0.5,3.1,0.9,4.7,1.4
		C169.3,305.5,169,306,168.6,306.4z"/>
</g>
</svg>
